# xmcd CD database file
#
# Track frame offsets:
#	150
#	14954
#	30971
#	41972
#	52665
#	63109
#	74000
#	81586
#	97526
#	107700
#	122277
#	132318
#	146343
#	159094
#	171671
#	185631
#
# Disc length: 2650 seconds
#
# Revision: 0
# Processed by: cddbd v1.5.2PL0 Copyright (c) Steve Scherf et al.
# Submitted via: CDex 1.51
#
DISCID=d60a5810
DTITLE=Various Artist - Just Country
DYEAR=2006
DGENRE=Country
TTITLE0=Slim Whitman - Mockingbird Hill
TTITLE1=Willy Nelson - Always On My Mind
TTITLE2=Roy Drusky - I Can't Help It I'm Still In Love With You
TTITLE3=Patsy Cline - Stop Look and Listen
TTITLE4=Rciky Nelson - Hello Mary Lou
TTITLE5=Jerry Lee Lewis - Another Place Another Time
TTITLE6=Jim Reeves - Bimbo
TTITLE7=Anne Murray - Both Sides Now
TTITLE8=Carl Perkins - Daddy Sang Bass
TTITLE9=Don Gibson - I Can't Stop Loving You
TTITLE10=Faron Young - Hello Walls
TTITLE11=Don Fardon - Indian Reservation
TTITLE12=Lynn Anderson - Rose Garden
TTITLE13=Kitty Wells - Making Believe
TTITLE14=Kenny Rogers - Sunshine
TTITLE15=Don Williams - Where Do We Go From Here
EXTD=YEAR: 2006
EXTT0=
EXTT1=
EXTT2=
EXTT3=
EXTT4=
EXTT5=
EXTT6=
EXTT7=
EXTT8=
EXTT9=
EXTT10=
EXTT11=
EXTT12=
EXTT13=
EXTT14=
EXTT15=
PLAYORDER=
